<svg width="33" height="32" viewBox="0 0 33 32" fill="none" xmlns="http://www.w3.org/2000/svg">
<path d="M1.78501 0.646729H30.245C31.225 0.646729 32.005 1.40386 32.005 2.35512V30C32.005 30.9319 31.225 31.7084 30.245 31.7084H22.085V19.672H26.245L26.865 14.9934H22.085V12.0037C22.085 10.6447 22.485 9.71286 24.485 9.71286H27.045V5.51953C26.605 5.46129 25.085 5.34481 23.325 5.34481C19.625 5.34481 17.105 7.51913 17.105 11.5377V14.9934H12.925V19.672H17.105V31.7084H1.78501C1.31636 31.7085 0.866619 31.5291 0.533373 31.2093C0.200128 30.8894 0.0102705 30.4549 0.00500488 30V2.35512C0.00500488 1.40386 0.805005 0.646729 1.78501 0.646729Z" fill="#10133A"/>
</svg>
