<svg width="31" height="30" viewBox="0 0 31 30" fill="none" xmlns="http://www.w3.org/2000/svg">
<path fill-rule="evenodd" clip-rule="evenodd" d="M29.2183 5.61503C29.6635 6.76169 29.8998 7.97479 29.9166 9.20007C30.0095 10.7412 30.01 11.2452 30.0133 15.146L30.0133 15.2005C30.0133 19.1528 29.9916 19.6462 29.92 21.2025C29.895 22.4142 29.66 23.6082 29.2216 24.7406C28.8351 25.7076 28.2453 26.5857 27.4897 27.3191C26.7342 28.0526 25.8295 28.6251 24.8333 29.0003C23.6672 29.4251 22.4352 29.6544 21.19 29.6782C19.5983 29.7687 19.0767 29.7687 15.0067 29.7687C10.9367 29.7687 10.4283 29.7477 8.82333 29.6782C7.57561 29.6383 6.34405 29.3921 5.18166 28.9501C4.1851 28.5758 3.27996 28.0037 2.52406 27.2705C1.76816 26.5373 1.17813 25.6592 0.791666 24.6921C0.353333 23.558 0.118333 22.3641 0.0933332 21.154C0 19.6074 0 19.1026 0 15.1519C0 11.2013 0.0216666 10.7079 0.0933332 9.14992C0.116872 7.9416 0.353051 6.74608 0.791666 5.61503C1.17748 4.64768 1.76707 3.76916 2.52272 3.03567C3.27837 2.30218 4.18343 1.72987 5.18 1.35537C6.34557 0.930645 7.57692 0.700894 8.82166 0.675893C10.4133 0.586914 10.935 0.586914 15.005 0.586914C19.075 0.586914 19.5833 0.606328 21.1866 0.675893C22.4319 0.700712 23.6639 0.930465 24.83 1.35537C25.8264 1.73013 26.7313 2.30253 27.4869 3.03599C28.2425 3.76944 28.8322 4.64783 29.2183 5.61503ZM7.28999 15.1439C7.28999 19.2757 10.7383 22.6229 14.995 22.6229C17.0385 22.6229 18.9983 21.835 20.4432 20.4324C21.8882 19.0298 22.7 17.1274 22.7 15.1439C22.7 13.1603 21.8882 11.258 20.4432 9.85535C18.9983 8.45275 17.0385 7.66478 14.995 7.66478C10.7383 7.66478 7.28999 11.012 7.28999 15.1439ZM21.21 7.38814C21.21 8.35234 22.0116 9.13212 23.0066 9.13212C23.9983 9.13212 24.8016 8.35234 24.8016 7.38814C24.8016 7.15922 24.7552 6.93254 24.6649 6.72105C24.5747 6.50956 24.4424 6.31739 24.2757 6.15552C24.1089 5.99365 23.9109 5.86525 23.693 5.77765C23.4752 5.69005 23.2416 5.64496 23.0058 5.64496C22.77 5.64496 22.5365 5.69005 22.3186 5.77765C22.1007 5.86525 21.9027 5.99365 21.736 6.15552C21.5692 6.31739 21.4369 6.50956 21.3467 6.72105C21.2564 6.93254 21.21 7.15922 21.21 7.38814ZM20 15.1441C20 17.8273 17.7592 20.0024 14.995 20.0024C12.2308 20.0024 9.98999 17.8273 9.98999 15.1441C9.98999 12.461 12.2308 10.2859 14.995 10.2859C17.7592 10.2859 20 12.461 20 15.1441Z" fill="#10133A"/>
</svg>
