<svg width="34" height="33" viewBox="0 0 34 33" fill="none" xmlns="http://www.w3.org/2000/svg">
<path d="M22.1267 0H11.9001C2.56005 0 0.338379 2.15652 0.338379 11.2065V21.1333C0.338379 30.1978 2.54338 32.356 11.8834 32.356H22.1101C31.4484 32.356 33.6718 30.2156 33.6718 21.1495V11.2227C33.6718 2.15652 31.4667 0 22.1267 0ZM27.2484 23.086H24.8167C23.8967 23.086 23.6201 22.3628 21.9701 20.7612C20.5301 19.4136 19.9217 19.2453 19.5567 19.2453C19.0534 19.2453 18.9151 19.3796 18.9151 20.0542V22.1768C18.9151 22.7511 18.7234 23.0876 17.1784 23.0876C15.679 22.9898 14.2249 22.5476 12.9361 21.7974C11.6472 21.0473 10.5603 20.0107 9.76506 18.7729C7.877 16.4918 6.56329 13.8146 5.92839 10.9541C5.92839 10.5998 6.06672 10.2795 6.76172 10.2795H9.19172C9.81672 10.2795 10.0417 10.5497 10.2867 11.1725C11.4667 14.544 13.4801 17.4755 14.2967 17.4755C14.6101 17.4755 14.7467 17.3412 14.7467 16.5824V13.1106C14.6434 11.5268 13.7767 11.3925 13.7767 10.8198C13.7879 10.6688 13.8592 10.5279 13.9755 10.427C14.0919 10.3261 14.2442 10.2732 14.4001 10.2795H18.2201C18.7417 10.2795 18.9151 10.5319 18.9151 11.1385V15.8237C18.9151 16.3301 19.1401 16.4983 19.2967 16.4983C19.6101 16.4983 19.8517 16.3301 20.4251 15.7735C21.6565 14.3158 22.6626 12.6917 23.4117 10.9525C23.4883 10.7436 23.6332 10.5647 23.8243 10.4432C24.0154 10.3217 24.2422 10.2642 24.4701 10.2795H26.9017C27.6301 10.2795 27.7851 10.6338 27.6301 11.1385C26.7459 13.0612 25.6519 14.8862 24.3667 16.5824C24.1051 16.9707 24.0001 17.1729 24.3667 17.6275C24.6084 17.9818 25.4601 18.6726 26.0334 19.3294C26.8666 20.1362 27.5585 21.0695 28.0817 22.0926C28.2901 22.7495 27.9417 23.0876 27.2484 23.0876V23.086Z" fill="#10133A"/>
</svg>
